<svg width="45" height="45" viewBox="0 0 45 45" fill="none" xmlns="http://www.w3.org/2000/svg">
<path d="M0 22.5C0 10.0736 10.0736 0 22.5 0C34.9264 0 45 10.0736 45 22.5C45 34.9264 34.9264 45 22.5 45C10.0736 45 0 34.9264 0 22.5Z" fill="white"/>
<path d="M31.2565 16.3443H30.2531L28.1719 10.6157C27.9997 10.1435 27.6869 9.73534 27.2755 9.44643C26.8641 9.15751 26.374 9.0017 25.8713 9H23.9123C23.2393 9 22.6885 9.55082 22.6885 10.2247C22.6885 10.8976 23.2393 11.4484 23.9123 11.4484H25.8713L27.6578 16.3443H21.7705L21.3298 15.1205H21.44C22.1129 15.1205 22.6637 14.5697 22.6637 13.8968C22.6637 13.223 22.1129 12.6721 21.44 12.6721H17.7927C17.1188 12.6721 16.568 13.223 16.568 13.8968C16.568 14.5697 17.1188 15.1205 17.7927 15.1205H18.7107L20.9378 21.241H20.118C19.5791 18.5108 17.2905 16.4911 14.4262 16.3571C10.9992 16.1854 8 19.0378 8 22.4648C8 25.8918 10.6926 28.5853 14.1205 28.5853C17.1317 28.5853 19.5672 26.5161 20.118 23.6885H25.259C25.7979 26.4188 28.0866 28.4384 30.9508 28.5725C34.3778 28.7322 37.377 25.8918 37.377 22.4529C37.377 19.0378 34.6845 16.3443 31.2565 16.3443ZM15.3443 23.6885H17.5723C17.0582 25.1941 15.6132 26.2351 13.8754 26.125C12.0513 26.0148 10.5338 24.4725 10.4484 22.6365C10.3621 20.4938 12.0026 18.7927 14.1205 18.7927C14.8804 18.7855 15.6231 19.0183 16.2429 19.4579C16.8626 19.8976 17.3279 20.5216 17.5723 21.241H15.3443C14.6713 21.241 14.1205 21.7919 14.1205 22.4648C14.1205 23.1377 14.6713 23.6885 15.3443 23.6885ZM25.259 21.241H23.545L22.6518 18.7927H26.3607C25.8068 19.5113 25.4295 20.3499 25.259 21.241ZM31.1096 26.1369C29.2249 26.0635 27.634 24.4597 27.5844 22.563C27.5605 21.3879 28.0618 20.3597 28.8696 19.674L29.6289 21.7551C29.6832 21.9065 29.7669 22.0456 29.8752 22.1645C29.9835 22.2834 30.1142 22.3797 30.2598 22.448C30.4054 22.5162 30.5631 22.555 30.7237 22.5621C30.8844 22.5693 31.0448 22.5446 31.1959 22.4896C31.3473 22.4352 31.4864 22.3515 31.6053 22.2432C31.7242 22.1349 31.8205 22.0042 31.8887 21.8586C31.957 21.713 31.9958 21.5554 32.0029 21.3947C32.0101 21.2341 31.9854 21.0736 31.9304 20.9225L31.1592 18.8046L31.1711 18.7927C31.6619 18.7759 32.151 18.8587 32.6088 19.0362C33.0666 19.2138 33.4838 19.4822 33.8349 19.8254C34.1861 20.1686 34.4641 20.5795 34.6521 21.0331C34.8401 21.4867 34.9342 21.9738 34.9287 22.4648C34.9287 24.5698 33.2395 26.2104 31.1096 26.1369ZM21.4648 32.2574H16.568L23.9123 35.9296V33.4812H28.809L21.4648 29.809V32.2574Z" fill="url(#paint0_linear_709_747)"/>
<defs>
<linearGradient id="paint0_linear_709_747" x1="22.6885" y1="9" x2="22.6885" y2="35.9296" gradientUnits="userSpaceOnUse">
<stop stop-color="#FFBF00"/>
<stop offset="1" stop-color="#F2A50C"/>
</linearGradient>
</defs>
</svg>
